<?xml version="1.0" encoding="utf-8"?>
<!-- Generator: Adobe Illustrator 21.1.0, SVG Export Plug-In . SVG Version: 6.00 Build 0)  -->
<svg version="1.1" id="Layer_1" xmlns="http://www.w3.org/2000/svg" xmlns:xlink="http://www.w3.org/1999/xlink" x="0px" y="0px"
	 viewBox="0 0 2880 1800" style="enable-background:new 0 0 2880 1800;" xml:space="preserve">
<style type="text/css">
	.st0{fill:#FFFFFF;}
	.st1{font-family:'MyriadPro-Regular';}
	.st2{font-size:108px;}
	.st3{font-size:63px;}
	.st4{fill:none;stroke:#000000;stroke-miterlimit:10;}
	.st5{font-size:41px;}
	.st6{font-size:43.7409px;}
	.st7{font-size:41.4285px;}
	.st8{font-size:89px;}
</style>
<g>
	<rect x="389.5" y="126.5" class="st0" width="2368" height="113"/>
	<path d="M2757,127v112H390V127H2757 M2758,126H389v114h2369V126L2758,126z"/>
</g>
<g>
	<rect x="389.5" y="1092.5" class="st0" width="2368" height="372"/>
	<path d="M2757,1093v371H390v-371H2757 M2758,1092H389v373h2369V1092L2758,1092z"/>
</g>
<g>
	<rect x="1078.5" y="1581.5" class="st0" width="893" height="133"/>
	<path d="M1971,1582v132h-892v-132H1971 M1972,1581h-894v134h894V1581L1972,1581z"/>
</g>
<g>
	<rect x="389.5" y="301.5" class="st0" width="2368" height="372"/>
	<path d="M2757,302v371H390V302H2757 M2758,301H389v373h2369V301L2758,301z"/>
</g>
<g>
	<rect x="389.5" y="1580.5" class="st0" width="668" height="133"/>
	<path d="M1057,1581v132H390v-132H1057 M1058,1580H389v134h669V1580L1058,1580z"/>
</g>
<g>
	<rect x="1988.5" y="1581.5" class="st0" width="769" height="133"/>
	<path d="M2757,1582v132h-768v-132H2757 M2758,1581h-770v134h770V1581L2758,1581z"/>
</g>
<g>
	<rect x="21.5" y="126.5" class="st0" width="332" height="1588"/>
	<path d="M353,127v1587H22V127H353 M354,126H21v1589h333V126L354,126z"/>
</g>
<g>
	<rect x="35.5" y="146.5" class="st0" width="306" height="93"/>
	<path d="M341,147v92H36v-92H341 M342,146H35v94h307V146L342,146z"/>
</g>
<g>
	<rect x="34.5" y="254.5" class="st0" width="306" height="93"/>
	<path d="M340,255v92H35v-92H340 M341,254H34v94h307V254L341,254z"/>
</g>
<g>
	<rect x="35.5" y="362.5" class="st0" width="306" height="93"/>
	<path d="M341,363v92H36v-92H341 M342,362H35v94h307V362L342,362z"/>
</g>
<g>
	<rect x="34.5" y="470.5" class="st0" width="306" height="93"/>
	<path d="M340,471v92H35v-92H340 M341,470H34v94h307V470L341,470z"/>
</g>
<g>
	<rect x="34.5" y="580.5" class="st0" width="306" height="93"/>
	<path d="M340,581v92H35v-92H340 M341,580H34v94h307V580L341,580z"/>
</g>
<g>
	<rect x="34.5" y="1346.5" class="st0" width="306" height="93"/>
	<path d="M340,1347v92H35v-92H340 M341,1346H34v94h307V1346L341,1346z"/>
</g>
<g>
	<rect x="35.5" y="1232.5" class="st0" width="306" height="93"/>
	<path d="M341,1233v92H36v-92H341 M342,1232H35v94h307V1232L342,1232z"/>
</g>
<g>
	<rect x="35.5" y="690.5" class="st0" width="306" height="93"/>
	<path d="M341,691v92H36v-92H341 M342,690H35v94h307V690L342,690z"/>
</g>
<g>
	<rect x="35.5" y="808.5" class="st0" width="305" height="400"/>
	<path d="M340,809v399H36V809H340 M341,808H35v401h306V808L341,808z"/>
</g>
<g>
	<rect x="1253.5" y="788.5" class="st0" width="640" height="223"/>
	<path d="M1893,789v222h-639V789H1893 M1894,788h-641v224h641V788L1894,788z"/>
</g>
<g>
	<rect x="1482.5" y="812.5" class="st0" width="357" height="67"/>
	<path d="M1839,813v66h-356v-66H1839 M1840,812h-358v68h358V812L1840,812z"/>
</g>
<g>
	<rect x="1482.5" y="912.5" class="st0" width="357" height="67"/>
	<path d="M1839,913v66h-356v-66H1839 M1840,912h-358v68h358V912L1840,912z"/>
</g>
<text transform="matrix(1 0 0 1 1252.7681 516.6299)" class="st1 st2">Picture Carousel</text>
<text transform="matrix(1 0 0 1 1252.7681 1296.6299)" class="st1 st2">Picture Carousel</text>
<text transform="matrix(1 0 0 1 23.8882 79.1162)" class="st1 st3">Menu Bar (moves with page)</text>
<g>
	<rect x="470.5" y="146.5" class="st0" width="227" height="67"/>
	<path d="M697,147v66H471v-66H697 M698,146H470v68h228V146L698,146z"/>
</g>
<text transform="matrix(1 0 0 1 1392.019 214.1807)" class="st1 st3">Name of Website</text>
<g>
	<line class="st4" x1="469.5" y1="213.5" x2="697.5" y2="145.5"/>
</g>
<line class="st4" x1="697.5" y1="213.5" x2="469.5" y2="145.5"/>
<text transform="matrix(1 0 0 1 97.8931 213.7622)" class="st1 st3">Home</text>
<text transform="matrix(1 0 0 1 98.8931 323.7622)" class="st1 st3">About</text>
<text transform="matrix(1 0 0 1 72.8931 435.7622)" class="st1 st3">Portfolio</text>
<text transform="matrix(1 0 0 1 72.8931 542.7622)" class="st1 st3">Mission</text>
<text transform="matrix(1 0 0 1 72.8931 648.7622)" class="st1 st3">SIGN UP</text>
<text transform="matrix(1 0 0 1 72.8931 755.7622)" class="st1 st3">Contact</text>
<text transform="matrix(1 0 0 1 51.8931 1296.7622)" class="st1 st5">Contributor Site</text>
<text transform="matrix(1 0 0 1 90.8931 1017.7622)" class="st1 st3">Adver.</text>
<text transform="matrix(1 0 0 1 51.8931 1406.7622)" class="st1 st5">Contributor Site</text>
<g>
	<rect x="2471.5" y="149.5" class="st0" width="227" height="67"/>
	<path d="M2698,150v66h-226v-66H2698 M2699,149h-228v68h228V149L2699,149z"/>
</g>
<line class="st4" x1="2698.5" y1="216.5" x2="2470.5" y2="148.5"/>
<g>
	<line class="st4" x1="2472.5" y1="216.5" x2="2700.5" y2="148.5"/>
</g>
<text transform="matrix(0.9384 0 0 1 1482.001 757.0977)" class="st1 st6">Log In</text>
<text transform="matrix(0.9384 0 0 1 1289.001 947.0977)" class="st1 st6">Password</text>
<text transform="matrix(0.9908 0 0 1 1289.001 860.6758)" class="st1 st7">UserName</text>
<text transform="matrix(0.7871 0 0 1 532.2578 1662.373)" class="st1 st5">Updated XX/XX/XXXX</text>
<text transform="matrix(1.0518 0 0 1 1308.0005 1648.0039)" class="st1 st5">MAIN CONTRIBUTORS</text>
<text transform="matrix(1.0518 0 0 1 1387.9912 1686.4277)" class="st1 st5">WITH PHOTOS</text>
<rect x="2031.9" y="1604.5" class="st4" width="77" height="85"/>
<rect x="2174.2" y="1605.5" class="st4" width="77" height="85"/>
<rect x="2316.4" y="1604.5" class="st4" width="77" height="85"/>
<rect x="2459.5" y="1604.5" class="st4" width="77" height="85"/>
<rect x="2600.8" y="1604.5" class="st4" width="77" height="85"/>
<text transform="matrix(0.9059 0 0 1 2088.7656 1769.2256)" class="st1 st5">SOCIAL MEDIA/GITHUB/ETC LINKS</text>
<g>
	<rect x="34.5" y="1465.5" class="st0" width="305" height="232"/>
	<path d="M339,1466v231H35v-231H339 M340,1465H34v233h306V1465L340,1465z"/>
</g>
<text transform="matrix(1 0 0 1 90.8931 1604.7622)" class="st1 st3">Adver.</text>
<rect x="433.5" y="736.5" class="st4" width="747" height="299"/>
<rect x="1971.5" y="730.5" class="st4" width="747" height="299"/>
<text transform="matrix(1 0 0 1 615.4067 900.0352)" class="st1 st8">Featured</text>
<text transform="matrix(1 0 0 1 2155.4067 900.0352)" class="st1 st8">Featured</text>
</svg>
